<?xml version="1.0" encoding="UTF-8"?>
<svg id="Layer_2" data-name="Layer 2" xmlns="http://www.w3.org/2000/svg" xmlns:xlink="http://www.w3.org/1999/xlink" viewBox="0 0 502.49 129.8">
  <defs>
    <style>
      .cls-1 {
        fill: url(#linear-gradient);
      }

      .cls-2 {
        fill: #fff;
      }

      .cls-3 {
        fill: url(#New_Gradient_Swatch_2);
      }

      .cls-4 {
        fill: url(#New_Gradient_Swatch_1);
      }

      .cls-5 {
        fill: url(#New_Gradient_Swatch_2-2);
      }

      .cls-6 {
        fill: url(#New_Gradient_Swatch_2-3);
      }

      .cls-7 {
        fill: url(#New_Gradient_Swatch_1-2);
      }
    </style>
    <linearGradient id="linear-gradient" x1="64.9" y1="16.23" x2="97.35" y2="16.23" gradientUnits="userSpaceOnUse">
      <stop offset="0" stop-color="#008a49"/>
      <stop offset=".13" stop-color="#00984b"/>
      <stop offset=".72" stop-color="#00d657"/>
      <stop offset="1" stop-color="#00ee5c"/>
    </linearGradient>
    <linearGradient id="New_Gradient_Swatch_1" data-name="New Gradient Swatch 1" x1="64.9" y1="81.13" x2="97.35" y2="81.13" gradientUnits="userSpaceOnUse">
      <stop offset="0" stop-color="#57f23a"/>
      <stop offset="1" stop-color="#008600"/>
    </linearGradient>
    <linearGradient id="New_Gradient_Swatch_2" data-name="New Gradient Swatch 2" x1="64.9" y1="97.35" x2="97.35" y2="97.35" gradientUnits="userSpaceOnUse">
      <stop offset="0" stop-color="#fbfa47"/>
      <stop offset="1" stop-color="#24fc41"/>
    </linearGradient>
    <linearGradient id="New_Gradient_Swatch_2-2" data-name="New Gradient Swatch 2" x1="97.35" y1="64.9" x2="129.8" y2="64.9" xlink:href="#New_Gradient_Swatch_2"/>
    <linearGradient id="New_Gradient_Swatch_1-2" data-name="New Gradient Swatch 1" x1="0" y1="97.35" x2="64.9" y2="97.35" xlink:href="#New_Gradient_Swatch_1"/>
    <linearGradient id="New_Gradient_Swatch_2-3" data-name="New Gradient Swatch 2" x1="0" y1="32.45" x2="64.9" y2="32.45" xlink:href="#New_Gradient_Swatch_2"/>
  </defs>
  <g id="Layer_1-2" data-name="Layer 1">
    <g id="capoom_horizontal_white_small">
      <g>
        <path class="cls-2" d="m166.35,63.31c0-13.04,9.31-22.35,22.6-22.35,11.42,0,20.01,7.13,21.87,17.82h-11.42c-1.62-4.29-5.51-6.97-10.29-6.97-6.64,0-11.1,4.7-11.1,11.5s4.45,11.5,11.1,11.5c4.94,0,8.59-2.75,10.29-7.05h11.5c-1.86,10.69-10.45,17.9-21.95,17.9-13.2,0-22.6-9.31-22.6-22.35Z"/>
        <path class="cls-2" d="m252.13,41.85h10.04v42.93h-10.04l-.41-4.29c-3.73,3.24-8.58,5.18-13.93,5.18-12.88,0-21.63-9.72-21.63-22.35s9.15-22.35,21.63-22.35c5.51,0,10.29,1.94,13.93,5.18l.41-4.29Zm-1.46,21.46c0-6.72-4.78-11.5-11.34-11.5s-11.42,4.78-11.42,11.5,4.78,11.5,11.42,11.5,11.34-4.78,11.34-11.5Z"/>
        <path class="cls-2" d="m319.92,63.31c0,12.47-8.59,22.35-21.38,22.35-4.94,0-9.4-1.54-12.96-4.29v16.52h-11.58v-56.05h10.04l.4,4.29c3.64-3.24,8.5-5.18,14.01-5.18,12.47,0,21.46,9.4,21.46,22.35Zm-11.66,0c0-6.72-4.78-11.5-11.34-11.5s-11.42,4.78-11.42,11.5,4.78,11.5,11.42,11.5,11.34-4.78,11.34-11.5Z"/>
        <path class="cls-2" d="m325.75,63.31c0-12.96,9.72-22.35,23-22.35s23,9.4,23,22.35-9.64,22.35-23,22.35-23-9.4-23-22.35Zm34.26,0c0-6.64-4.78-11.5-11.26-11.5s-11.26,4.86-11.26,11.5,4.78,11.5,11.26,11.5,11.26-4.86,11.26-11.5Z"/>
        <path class="cls-2" d="m377.68,63.31c0-12.96,9.72-22.35,23-22.35s23,9.4,23,22.35-9.64,22.35-23,22.35-23-9.4-23-22.35Zm34.26,0c0-6.64-4.78-11.5-11.26-11.5s-11.26,4.86-11.26,11.5,4.78,11.5,11.26,11.5,11.26-4.86,11.26-11.5Z"/>
        <path class="cls-2" d="m502.49,59.91v24.87h-11.58v-23.65c0-6.07-2.75-9.4-8.02-9.4-5.83,0-9.56,3.73-9.56,9.4v23.65h-11.58v-23.65c0-6.07-2.75-9.4-8.02-9.4-5.83,0-9.56,3.73-9.56,9.4v23.65h-11.58v-42.93h10.93l.32,5.02c3.08-3.73,7.78-5.83,13.28-5.83,6.24,0,10.85,2.51,13.44,7.29,3.97-4.86,9.15-7.29,15.47-7.29,10.69,0,16.44,6.64,16.44,18.87Z"/>
      </g>
      <g>
        <polygon class="cls-1" points="64.9 32.45 64.9 0 97.35 32.45 64.9 32.45"/>
        <polyline class="cls-4" points="97.35 64.9 64.9 97.35 64.9 64.9"/>
        <polygon class="cls-3" points="97.35 64.9 97.35 97.35 64.9 129.8 64.9 97.35 97.35 64.9"/>
        <polygon class="cls-5" points="97.35 97.35 129.8 64.9 97.35 32.45 97.35 97.35"/>
        <polygon class="cls-7" points="64.9 64.9 64.9 129.8 0 64.9 64.9 64.9"/>
        <polygon class="cls-6" points="0 64.9 64.9 0 64.9 64.9 0 64.9"/>
      </g>
    </g>
  </g>
</svg>