<?xml version="1.0" encoding="UTF-8"?>
<svg id="Layer_2" data-name="Layer 2" xmlns="http://www.w3.org/2000/svg" xmlns:xlink="http://www.w3.org/1999/xlink" viewBox="0 0 553.69 139.19">
  <defs>
    <style>
      .cls-1 {
        fill: url(#linear-gradient);
      }

      .cls-2 {
        fill: #fff;
      }

      .cls-3 {
        fill: url(#New_Gradient_Swatch_4);
      }

      .cls-4 {
        fill: url(#linear-gradient-3);
      }

      .cls-5 {
        fill: url(#linear-gradient-2);
      }
    </style>
    <linearGradient id="New_Gradient_Swatch_4" data-name="New Gradient Swatch 4" x1="-475.86" y1="-4737.06" x2="-426.7" y2="-4737.06" gradientTransform="translate(-4643.04 475.86) rotate(90)" gradientUnits="userSpaceOnUse">
      <stop offset="0" stop-color="#008a49"/>
      <stop offset=".13" stop-color="#00984b"/>
      <stop offset=".72" stop-color="#00d657"/>
      <stop offset="1" stop-color="#00ee5c"/>
    </linearGradient>
    <linearGradient id="linear-gradient" x1="2619.99" y1="-4632.55" x2="2570.83" y2="-4583.4" gradientTransform="translate(5128.32 -1353.51) rotate(-135)" gradientUnits="userSpaceOnUse">
      <stop offset="0" stop-color="#f5af19"/>
      <stop offset="1" stop-color="#f12711"/>
    </linearGradient>
    <linearGradient id="linear-gradient-2" x1="1236.06" y1="-5378.66" x2="1236.06" y2="-5329.5" gradientTransform="translate(5448.17 1350.59) rotate(-90)" gradientUnits="userSpaceOnUse">
      <stop offset="0" stop-color="#f12711"/>
      <stop offset="1" stop-color="#f5af19"/>
    </linearGradient>
    <linearGradient id="linear-gradient-3" x1="-229.27" y1="-2011.45" x2="-180.11" y2="-2060.61" gradientTransform="translate(-1141.44 1654.1) rotate(45)" xlink:href="#linear-gradient-2"/>
  </defs>
  <g id="Layer_1-2" data-name="Layer 1">
    <g id="opusapi_horizontal_white">
      <g>
        <path class="cls-2" d="m227.19,67.73c0-12.96,9.72-22.35,23-22.35s23,9.4,23,22.35-9.64,22.35-23,22.35-23-9.4-23-22.35Zm34.26,0c0-6.64-4.78-11.5-11.26-11.5s-11.26,4.86-11.26,11.5,4.78,11.5,11.26,11.5,11.26-4.86,11.26-11.5Z"/>
        <path class="cls-2" d="m328.03,67.73c0,12.47-8.59,22.35-21.38,22.35-4.94,0-9.4-1.54-12.96-4.29v16.52h-11.58v-56.05h10.04l.41,4.29c3.64-3.24,8.5-5.18,14.01-5.18,12.47,0,21.46,9.4,21.46,22.35Zm-11.66,0c0-6.72-4.78-11.5-11.34-11.5s-11.42,4.78-11.42,11.5,4.78,11.5,11.42,11.5,11.34-4.78,11.34-11.5Z"/>
        <path class="cls-2" d="m365.85,46.27h11.58v42.93h-10.93l-.32-5.02c-3.32,3.81-8.02,5.83-13.53,5.83-10.37,0-16.44-6.64-16.44-18.87v-24.87h11.58v23.49c0,6.24,2.92,9.56,8.1,9.56,6.07,0,9.96-3.81,9.96-9.8v-23.25Z"/>
        <path class="cls-2" d="m385.62,75.67h11.58c.24,3,2.92,4.7,7.21,4.7,4.05,0,6.8-1.46,6.8-3.89s-1.94-3.32-8.67-4.29c-11.34-1.54-16.44-5.67-16.44-13.2,0-8.42,7.37-13.61,17.98-13.61,10.04,0,17.25,5.59,17.74,13.77h-11.18c-.4-2.67-2.75-4.13-6.72-4.13s-6.16,1.3-6.16,3.64,2.27,3.56,8.83,4.45c10.53,1.3,16.28,5.26,16.28,13.12,0,8.59-7.69,13.77-18.71,13.77s-18.14-5.51-18.55-14.34Z"/>
        <path class="cls-2" d="m464.27,46.27h10.04v42.93h-10.04l-.4-4.29c-3.73,3.24-8.59,5.18-13.93,5.18-12.88,0-21.63-9.72-21.63-22.35s9.15-22.35,21.63-22.35c5.51,0,10.29,1.94,13.93,5.18l.4-4.29Zm-1.46,21.46c0-6.72-4.78-11.5-11.34-11.5s-11.42,4.78-11.42,11.5,4.78,11.5,11.42,11.5,11.34-4.78,11.34-11.5Z"/>
        <path class="cls-2" d="m532.06,67.73c0,12.47-8.59,22.35-21.38,22.35-4.94,0-9.4-1.54-12.96-4.29v16.52h-11.58v-56.05h10.04l.41,4.29c3.64-3.24,8.5-5.18,14.01-5.18,12.47,0,21.46,9.4,21.46,22.35Zm-11.66,0c0-6.72-4.78-11.5-11.34-11.5s-11.42,4.78-11.42,11.5,4.78,11.5,11.42,11.5,11.34-4.78,11.34-11.5Z"/>
        <path class="cls-2" d="m539.76,35.42c0-3.89,2.83-6.72,6.97-6.72s6.97,2.83,6.97,6.72-2.92,6.8-6.97,6.8-6.97-2.92-6.97-6.8Zm1.13,53.78v-42.93h11.58v42.93h-11.58Z"/>
      </g>
      <g>
        <polygon class="cls-3" points="69.44 0 118.6 0 69.44 49.16 69.44 0"/>
        <polygon class="cls-1" points="0 69.59 69.52 .07 69.52 139.1 0 69.59"/>
        <g>
          <polygon class="cls-5" points="118.67 139.1 69.52 139.1 118.67 89.95 118.67 139.1"/>
          <polygon class="cls-4" points="188.27 69.67 118.76 139.19 118.76 .15 188.27 69.67"/>
        </g>
      </g>
    </g>
  </g>
</svg>